<svg width="80" height="80" viewBox="0 0 80 80" fill="none" xmlns="http://www.w3.org/2000/svg">
<circle cx="37.677" cy="11.3235" r="8.32347" stroke="#353535" stroke-width="4"/>
<path d="M39.6777 21.6465C39.6777 20.5419 38.7823 19.6465 37.6777 19.6465C36.5732 19.6465 35.6777 20.5419 35.6777 21.6465L39.6777 21.6465ZM35.6777 21.6465L35.6777 50.3228L39.6777 50.3228L39.6777 21.6465L35.6777 21.6465Z" fill="#353535"/>
<path d="M37.6777 35.4121H56.0306" stroke="#353535" stroke-width="4" stroke-linecap="round"/>
<path d="M49.5527 49.918L70.641 71.0063" stroke="#353535" stroke-width="4" stroke-linecap="round"/>
<path d="M37.6777 49.75H49.1483" stroke="#353535" stroke-width="4" stroke-linecap="round"/>
<path d="M46.1961 67.2466C44.6946 69.7314 42.6418 71.8375 40.1964 73.4021C37.751 74.9668 34.9784 75.9481 32.0932 76.2701C29.208 76.5921 26.2873 76.2462 23.5571 75.2591C20.8269 74.2721 18.3603 72.6704 16.348 70.5778C14.3357 68.4852 12.8317 65.9578 11.9522 63.1911C11.0726 60.4244 10.8412 57.4924 11.2758 54.622C11.7104 51.7516 12.7993 49.0195 14.4584 46.6372C16.1175 44.2548 18.3023 42.2859 20.8439 40.8828" stroke="#353535" stroke-width="4" stroke-linecap="round"/>
</svg>
