<svg width="80" height="80" viewBox="0 0 80 80" fill="none" xmlns="http://www.w3.org/2000/svg">
<path fill-rule="evenodd" clip-rule="evenodd" d="M6 18V62.1143H74V18H6ZM4.28571 14C3.02335 14 2 15.0234 2 16.2857V63.8286C2 65.0909 3.02335 66.1143 4.28571 66.1143H75.7143C76.9767 66.1143 78 65.0909 78 63.8286V16.2857C78 15.0233 76.9767 14 75.7143 14H4.28571Z" fill="#353535"/>
<path d="M2 25.9434H78V32.4576H2V25.9434Z" fill="#353535"/>
<path fill-rule="evenodd" clip-rule="evenodd" d="M10.8613 42.7715C10.8613 41.6669 11.7568 40.7715 12.8613 40.7715H38.9185C40.023 40.7715 40.9185 41.6669 40.9185 42.7715C40.9185 43.8761 40.023 44.7715 38.9185 44.7715H12.8613C11.7568 44.7715 10.8613 43.8761 10.8613 42.7715Z" fill="#353535"/>
<path fill-rule="evenodd" clip-rule="evenodd" d="M57.5488 42.2285C57.5488 41.1239 58.4443 40.2285 59.5488 40.2285L68.2345 40.2285C69.3391 40.2285 70.2345 41.1239 70.2345 42.2285C70.2345 43.3331 69.3391 44.2285 68.2345 44.2285L59.5488 44.2285C58.4443 44.2285 57.5488 43.3331 57.5488 42.2285Z" fill="#353535"/>
</svg>
