<svg width="80" height="80" viewBox="0 0 80 80" fill="none" xmlns="http://www.w3.org/2000/svg">
<path fill-rule="evenodd" clip-rule="evenodd" d="M40 76C30.1031 76 21.1389 72.0063 14.6312 65.5426C14.6021 65.5137 14.5731 65.4848 14.5442 65.4558C14.5152 65.4269 14.4863 65.3979 14.4574 65.3688C8.01111 58.8786 4.02154 49.9452 4.00009 40.08C4.00003 40.0533 4 40.0267 4 40C4 39.9733 4.00003 39.9467 4.00009 39.92C4.02149 30.0794 7.99121 21.166 14.4092 14.6799C14.454 14.6345 14.499 14.5893 14.5442 14.5442C14.5893 14.499 14.6345 14.454 14.6799 14.4092C21.1836 7.97382 30.1277 4 40 4C59.8823 4 76 20.1177 76 40C76 59.8823 59.8823 76 40 76ZM40 72V40V8C57.6731 8 72 22.3269 72 40C72 57.6731 57.6731 72 40 72Z" fill="#353535"/>
</svg>
